<?xml version="1.0" encoding="utf-8"?>
<!-- Generator: Adobe Illustrator 17.0.0, SVG Export Plug-In . SVG Version: 6.00 Build 0)  -->
<!DOCTYPE svg PUBLIC "-//W3C//DTD SVG 1.1//EN" "http://www.w3.org/Graphics/SVG/1.1/DTD/svg11.dtd">
<svg version="1.1" id="Layer_1" xmlns="http://www.w3.org/2000/svg" xmlns:xlink="http://www.w3.org/1999/xlink" x="0px" y="0px"
	 width="150px" height="50px" viewBox="0 0 150 50" enable-background="new 0 0 150 50" xml:space="preserve">
<g>
	<g>
		<linearGradient id="SVGID_1_" gradientUnits="userSpaceOnUse" x1="30.3533" y1="11.628" x2="14.5391" y2="23.4131">
			<stop  offset="0.0051" style="stop-color:#00A4E2"/>
			<stop  offset="1" style="stop-color:#44ADE2"/>
		</linearGradient>
		<path fill="url(#SVGID_1_)" d="M15.784,2.859C7.631,6.916,2.028,15.33,2.028,25.054c0,3.47,0.714,6.772,2.002,9.77
			c1.046-10.992,8.365-19.892,17.951-21.851c1.49-0.594,3.116-0.922,4.819-0.922c7.067,0,12.812,5.633,13.002,12.654
			C39.591,12.93,29.03,3.394,15.784,2.859z"/>
		<linearGradient id="SVGID_2_" gradientUnits="userSpaceOnUse" x1="19.8238" y1="22.697" x2="20.0258" y2="37.0441">
			<stop  offset="0.0051" style="stop-color:#156D38"/>
			<stop  offset="1" style="stop-color:#64BB46"/>
		</linearGradient>
		<path fill="url(#SVGID_2_)" d="M4.03,34.824c3.79,8.823,12.556,15.004,22.767,15.008l8.307,0.099L36.17,50
			c0.001,0,0.002,0,0.003,0C23.308,48.609,13.706,38.447,13.93,27.053c-0.094-0.628-0.143-1.303-0.143-1.957
			c0-5.485,3.393-10.192,8.194-12.108C12.395,14.948,5.077,23.832,4.03,34.824z"/>
		<linearGradient id="SVGID_3_" gradientUnits="userSpaceOnUse" x1="16.3883" y1="38.5354" x2="25.8104" y2="38.5354">
			<stop  offset="0.0051" style="stop-color:#1A2C17"/>
			<stop  offset="1" style="stop-color:#246130"/>
		</linearGradient>
		<path fill="url(#SVGID_3_)" d="M35.531,49.87C36.09,49.827,36,49.361,36,48.791v-0.05v-4.462v-0.635C36,40.69,34.571,39,31.636,39
			H30.72l-3.947-0.497C20.19,38.5,14.532,33.474,13.598,27.201C13.374,38.594,22.667,48.302,35.531,49.87z"/>
		<linearGradient id="SVGID_4_" gradientUnits="userSpaceOnUse" x1="24.6736" y1="20.8262" x2="47.8025" y2="29.0722">
			<stop  offset="0" style="stop-color:#263B8B"/>
			<stop  offset="1" style="stop-color:#0099CD"/>
			<stop  offset="1" style="stop-color:#2A3688"/>
		</linearGradient>
		<path fill="url(#SVGID_4_)" d="M26.806,0.277c-3.96,0-7.702,0.931-11.022,2.583C29.03,3.394,39.555,12.93,39.766,24.705
			C39.769,24.824,40,38.089,40,38.089v10.35v0.05c0,0.259-0.046,0.497,0.106,0.683c6.542-3.244,10.432-9.741,11.385-17.138
			c0,0,0.043-6.392,0.043-6.41c0.004-0.189,0.028-0.379,0.028-0.569C51.563,11.37,40.491,0.277,26.806,0.277z"/>
		<linearGradient id="SVGID_5_" gradientUnits="userSpaceOnUse" x1="45.9285" y1="40.1973" x2="46.0294" y2="46.8587">
			<stop  offset="0.0051" style="stop-color:#1D7E8D"/>
			<stop  offset="1" style="stop-color:#39C5F3"/>
		</linearGradient>
		<path fill="url(#SVGID_5_)" d="M51.401,32.003C50.01,39.4,46.467,45.915,39.924,49.16c0.173,0.212,0.65,0.37,0.936,0.404
			l0.792,0.003c0.226-0.042,0.651-0.088,0.871-0.137c6.116-1.378,9.516-5.667,9.516-11.199L51.401,32.003z"/>
		<path opacity="0.4" fill="#FFFFFF" d="M5.663,25.075c0-10.505,7.661-19.219,17.701-20.863c-2.378-0.776-4.925-1.246-7.58-1.353
			C7.631,6.916,2.028,15.33,2.028,25.054c0,3.47,0.714,6.772,2.002,9.77c0.249-2.616,0.854-5.113,1.76-7.427
			C5.707,26.635,5.663,25.86,5.663,25.075z"/>
		<path opacity="0.4" fill="#FFFFFF" d="M5.79,27.397c-0.906,2.314-1.511,4.811-1.76,7.427c3.79,8.823,12.556,15.004,22.767,15.008
			l8.307,0.099L36.17,50c0.001,0-0.13-0.116-0.129-0.116c-4.02,0-7.59-1.745-10.772-3.656C15.08,45.496,6.891,37.479,5.79,27.397z"
			/>
		<path opacity="0.4" fill="#FFFFFF" d="M25.238,46.129c3.204,1.924,6.319,3.239,10.367,3.732C36.168,49.818,36,49.349,36,48.775
			v-0.051v-4.493v-0.639c0-0.045-5.915,2.592-9.703,2.592C25.776,46.185,25.75,46.166,25.238,46.129z"/>
		<path opacity="0.4" fill="#FFFFFF" d="M51.509,31.961c0,0,0.058-6.789,0.058-6.98c0-13.684-11.085-24.778-24.769-24.778
			c-3.96,0-7.698,0.931-11.018,2.583c2.655,0.107,5.204,0.577,7.582,1.353c1.121-0.184,2.271-0.281,3.444-0.281
			c11.677,0,21.249,9.466,21.249,21.144C48.054,31.784,45,37.82,40,41.689v6.676v0.05c0,0.259-0.046,0.497,0.106,0.683
			C46.649,45.855,50.556,39.358,51.509,31.961z"/>
	</g>
	<g>
		<g>
			<path d="M57.017,27.111c0.097-0.5,0.158-0.85,0.182-1.051c0.024-0.201,0.068-0.506,0.13-0.916
				c0.944-0.222,1.776-0.378,2.498-0.468c0.721-0.09,1.419-0.135,2.092-0.135c0.763,0,1.464,0.088,2.102,0.265
				c0.638,0.177,1.138,0.46,1.498,0.848c0.361,0.389,0.541,0.947,0.541,1.675c0,0.395-0.055,1.403-0.165,3.023
				c-0.11,1.62-0.176,3.294-0.197,5.021c-0.528-0.014-1.014-0.021-1.458-0.021c-0.424,0-0.92,0.007-1.489,0.021
				c0.091-0.839,0.165-1.811,0.221-2.914l0.137-2.591c-0.264,0.174-0.465,0.295-0.604,0.364c-0.139,0.069-0.295,0.134-0.469,0.193
				c-0.174,0.059-0.479,0.149-0.917,0.271c-0.437,0.121-0.788,0.227-1.052,0.317c-0.264,0.09-0.502,0.193-0.714,0.307
				c-0.212,0.115-0.391,0.243-0.536,0.385c-0.146,0.142-0.252,0.291-0.318,0.447c-0.066,0.156-0.099,0.324-0.099,0.505
				c0,0.291,0.085,0.543,0.255,0.754c0.17,0.212,0.383,0.359,0.64,0.442c0.257,0.083,0.558,0.125,0.905,0.125
				c0.222,0,0.456-0.017,0.702-0.052c0.246-0.035,0.578-0.121,0.994-0.26c-0.146,0.395-0.316,0.985-0.51,1.769
				c-0.493,0.083-0.885,0.135-1.176,0.156c-0.291,0.021-0.562,0.031-0.812,0.031c-0.874,0-1.592-0.118-2.154-0.354
				c-0.562-0.236-0.976-0.611-1.243-1.124c-0.267-0.513-0.401-1.03-0.401-1.55c0-0.298,0.052-0.593,0.156-0.885
				c0.104-0.291,0.257-0.558,0.458-0.801c0.201-0.243,0.462-0.477,0.781-0.702c0.319-0.226,0.781-0.444,1.385-0.656
				c0.604-0.211,1.402-0.425,2.395-0.64c0.264-0.055,0.538-0.123,0.823-0.203c0.285-0.08,0.512-0.158,0.682-0.234
				c0.17-0.076,0.318-0.175,0.443-0.297c0.125-0.121,0.217-0.248,0.276-0.38c0.059-0.132,0.089-0.267,0.089-0.406
				c0-0.271-0.089-0.5-0.266-0.687c-0.177-0.187-0.406-0.317-0.687-0.39c-0.281-0.073-0.592-0.109-0.932-0.109
				C59.94,26.206,58.545,26.507,57.017,27.111z"/>
			<path d="M68.308,35.374c0.103-1.172,0.229-3.28,0.378-6.322c0.148-3.042,0.24-5.67,0.274-7.883
				c0.722,0.014,1.236,0.021,1.542,0.021c0.41,0,0.91-0.007,1.5-0.021l-0.249,3.798l-0.363,8.471l-0.041,1.936
				c-0.569-0.014-1.052-0.021-1.448-0.021C69.77,35.353,69.239,35.36,68.308,35.374z"/>
			<path d="M73.969,35.374c0.097-1.179,0.199-2.941,0.307-5.287c0.107-2.345,0.161-4.11,0.161-5.297
				c0.589,0.014,1.068,0.021,1.435,0.021c0.423,0,0.881-0.007,1.374-0.021l-0.08,1.676c0.222-0.326,0.425-0.591,0.609-0.796
				c0.184-0.205,0.421-0.394,0.713-0.567c0.291-0.173,0.633-0.31,1.025-0.411c0.392-0.1,0.796-0.151,1.212-0.151
				c0.312,0,0.614,0.03,0.905,0.088c0.291,0.059,0.556,0.142,0.796,0.25c0.239,0.108,0.444,0.231,0.614,0.369
				c0.17,0.139,0.314,0.293,0.432,0.463c0.118,0.17,0.246,0.421,0.385,0.754c0.152-0.243,0.293-0.446,0.421-0.609
				c0.128-0.163,0.3-0.331,0.515-0.505c0.215-0.173,0.454-0.319,0.718-0.437c0.264-0.118,0.56-0.21,0.89-0.276
				c0.329-0.066,0.671-0.099,1.025-0.099c0.604,0,1.172,0.099,1.706,0.296c0.534,0.198,0.954,0.51,1.259,0.937
				c0.305,0.427,0.458,0.956,0.458,1.587c0,0.333-0.024,0.822-0.072,1.467c-0.048,0.645-0.106,1.698-0.175,3.158
				c-0.069,1.46-0.106,2.59-0.113,3.387c-0.507-0.014-0.956-0.021-1.344-0.021c-0.459,0-0.997,0.007-1.615,0.021
				c0.063-0.895,0.122-1.832,0.178-2.81l0.125-2.383c0.035-0.604,0.052-1.114,0.052-1.53c0-0.495-0.078-0.87-0.234-1.125
				c-0.156-0.255-0.354-0.436-0.593-0.544c-0.239-0.108-0.508-0.162-0.807-0.162c-0.312,0-0.595,0.059-0.848,0.178
				c-0.253,0.119-0.49,0.31-0.708,0.575c-0.218,0.265-0.387,0.573-0.505,0.926c-0.118,0.352-0.204,0.845-0.259,1.48
				c-0.055,0.635-0.099,1.469-0.133,2.503l-0.072,2.893c-0.577-0.014-1.056-0.021-1.438-0.021c-0.382,0-0.893,0.007-1.532,0.021
				c0.048-0.534,0.117-1.627,0.207-3.278c0.09-1.651,0.135-2.765,0.135-3.341c0-0.305-0.024-0.564-0.073-0.775
				c-0.049-0.212-0.147-0.413-0.296-0.604c-0.149-0.191-0.324-0.331-0.525-0.422c-0.201-0.09-0.433-0.135-0.697-0.135
				c-0.485,0-0.912,0.16-1.279,0.479c-0.367,0.319-0.636,0.746-0.806,1.28c-0.17,0.534-0.293,1.573-0.368,3.117
				c-0.076,1.544-0.114,2.77-0.114,3.679c-0.637-0.014-1.118-0.021-1.443-0.021C75.128,35.353,74.62,35.36,73.969,35.374z"/>
			<path d="M103.734,35.374c-0.611-0.014-1.08-0.021-1.406-0.021c-0.41,0-0.875,0.007-1.395,0.021l0.019-1.727
				c-0.194,0.291-0.364,0.525-0.51,0.702c-0.146,0.177-0.336,0.35-0.572,0.52c-0.236,0.17-0.493,0.305-0.77,0.406
				c-0.277,0.1-0.595,0.184-0.952,0.25s-0.737,0.099-1.139,0.099c-0.777,0-1.453-0.113-2.029-0.338
				c-0.576-0.225-1.032-0.567-1.368-1.025s-0.504-1.114-0.504-1.967v-0.218l0.169-2.685l0.158-3.538
				c0.007-0.284,0.011-0.638,0.011-1.062c0.658,0.014,1.174,0.021,1.548,0.021c0.395,0,0.873-0.007,1.434-0.021l-0.346,4.745
				c-0.021,0.368-0.037,0.678-0.047,0.931c-0.01,0.253-0.016,0.435-0.016,0.546c0,0.5,0.074,0.914,0.223,1.244
				c0.149,0.33,0.409,0.581,0.78,0.754c0.371,0.174,0.768,0.26,1.19,0.26c0.402,0,0.783-0.076,1.144-0.229
				c0.326-0.139,0.605-0.333,0.837-0.583c0.232-0.25,0.428-0.586,0.588-1.009c0.118-0.305,0.208-0.728,0.27-1.27
				c0.049-0.382,0.094-1.037,0.135-1.967c0.058-1.124,0.097-2.265,0.119-3.424c0.688,0.014,1.212,0.021,1.573,0.021
				c0.41,0,0.872-0.007,1.386-0.021c-0.083,0.992-0.169,2.232-0.259,3.72c-0.09,1.488-0.152,2.716-0.187,3.684
				C103.782,33.162,103.754,34.222,103.734,35.374z"/>
			<path d="M113.816,40.15l0.176-2.851c0.034-0.43,0.066-0.992,0.093-1.686l0.104-1.967c-0.312,0.389-0.576,0.685-0.791,0.89
				c-0.215,0.205-0.475,0.389-0.781,0.552c-0.305,0.163-0.641,0.293-1.009,0.39c-0.368,0.097-0.752,0.146-1.155,0.146
				c-0.631,0-1.224-0.118-1.779-0.354c-0.555-0.236-1.035-0.578-1.441-1.025c-0.406-0.448-0.709-0.978-0.91-1.592
				c-0.201-0.614-0.302-1.25-0.302-1.91c0-0.944,0.186-1.851,0.557-2.721c0.371-0.871,0.879-1.564,1.525-2.081
				c0.645-0.517,1.405-0.879,2.279-1.088c0.874-0.208,1.821-0.312,2.841-0.312c0.52,0,1.101,0.026,1.743,0.078
				c0.642,0.052,1.486,0.165,2.534,0.338c-0.332,3.587-0.549,8.651-0.653,15.194c-0.521-0.014-1.017-0.021-1.489-0.021
				C114.975,40.13,114.462,40.137,113.816,40.15z M114.365,26.882c-0.534-0.132-1.033-0.198-1.498-0.198
				c-0.818,0-1.529,0.165-2.132,0.494c-0.603,0.33-1.059,0.819-1.368,1.467c-0.309,0.649-0.463,1.362-0.463,2.139
				c0,0.506,0.088,0.968,0.265,1.384c0.177,0.416,0.456,0.749,0.837,0.999c0.382,0.25,0.811,0.375,1.29,0.375
				c0.402,0,0.785-0.092,1.149-0.276c0.364-0.184,0.681-0.453,0.952-0.807c0.27-0.354,0.472-0.76,0.603-1.218
				c0.09-0.291,0.163-0.727,0.218-1.306C114.274,29.357,114.323,28.339,114.365,26.882z"/>
			<path d="M128.978,33.012c-0.09,0.41-0.219,1.145-0.385,2.206c-0.749,0.16-1.381,0.267-1.894,0.323
				c-0.513,0.055-1.03,0.083-1.55,0.083c-0.909,0-1.722-0.09-2.44-0.27c-0.718-0.18-1.348-0.511-1.889-0.993
				c-0.541-0.482-0.94-1.073-1.197-1.773c-0.257-0.7-0.385-1.435-0.385-2.204c0-0.852,0.149-1.679,0.447-2.48
				c0.298-0.8,0.716-1.455,1.254-1.965c0.538-0.51,1.15-0.87,1.837-1.081c0.687-0.211,1.405-0.317,2.154-0.317
				c0.708,0,1.38,0.088,2.019,0.265c0.638,0.177,1.174,0.466,1.608,0.867c0.434,0.402,0.767,0.885,0.999,1.449
				c0.232,0.564,0.349,1.193,0.349,1.885c0,0.325-0.035,0.661-0.104,1.007l-7.628,0.01c-0.014,0.257-0.021,0.462-0.021,0.614
				c0,0.465,0.08,0.891,0.239,1.28c0.159,0.389,0.392,0.718,0.697,0.989c0.305,0.271,0.669,0.47,1.093,0.598
				c0.423,0.128,0.839,0.193,1.249,0.193c0.479,0,0.997-0.052,1.556-0.156C127.544,33.438,128.208,33.261,128.978,33.012z
				 M122.256,28.807l4.87,0.01c0-0.332-0.01-0.577-0.031-0.736c-0.021-0.159-0.068-0.34-0.14-0.544
				c-0.073-0.204-0.172-0.383-0.297-0.539c-0.125-0.155-0.27-0.285-0.437-0.389c-0.167-0.104-0.359-0.183-0.578-0.238
				c-0.219-0.055-0.453-0.083-0.702-0.083c-0.291,0-0.574,0.045-0.848,0.135c-0.274,0.09-0.525,0.221-0.754,0.394
				c-0.229,0.173-0.415,0.366-0.557,0.58c-0.142,0.214-0.248,0.42-0.317,0.617C122.394,28.212,122.325,28.476,122.256,28.807z"/>
			<path d="M140.925,33.012c-0.09,0.41-0.219,1.145-0.385,2.206c-0.749,0.16-1.381,0.267-1.894,0.323
				c-0.513,0.055-1.03,0.083-1.55,0.083c-0.909,0-1.722-0.09-2.44-0.27c-0.718-0.18-1.348-0.511-1.889-0.993
				c-0.541-0.482-0.94-1.073-1.197-1.773c-0.257-0.7-0.385-1.435-0.385-2.204c0-0.852,0.149-1.679,0.447-2.48
				c0.298-0.8,0.716-1.455,1.254-1.965c0.538-0.51,1.15-0.87,1.837-1.081c0.687-0.211,1.405-0.317,2.154-0.317
				c0.708,0,1.38,0.088,2.019,0.265c0.638,0.177,1.174,0.466,1.608,0.867c0.434,0.402,0.767,0.885,0.999,1.449
				c0.232,0.564,0.349,1.193,0.349,1.885c0,0.325-0.035,0.661-0.104,1.007l-7.628,0.01c-0.014,0.257-0.021,0.462-0.021,0.614
				c0,0.465,0.08,0.891,0.239,1.28c0.159,0.389,0.392,0.718,0.697,0.989c0.305,0.271,0.669,0.47,1.093,0.598
				c0.423,0.128,0.839,0.193,1.249,0.193c0.479,0,0.997-0.052,1.556-0.156C139.49,33.438,140.155,33.261,140.925,33.012z
				 M134.202,28.807l4.87,0.01c0-0.332-0.01-0.577-0.031-0.736c-0.021-0.159-0.068-0.34-0.14-0.544
				c-0.073-0.204-0.172-0.383-0.297-0.539c-0.125-0.155-0.27-0.285-0.437-0.389c-0.167-0.104-0.359-0.183-0.578-0.238
				c-0.219-0.055-0.453-0.083-0.702-0.083c-0.291,0-0.574,0.045-0.848,0.135c-0.274,0.09-0.525,0.221-0.754,0.394
				c-0.229,0.173-0.415,0.366-0.557,0.58c-0.142,0.214-0.248,0.42-0.317,0.617C134.341,28.212,134.272,28.476,134.202,28.807z"/>
			<path d="M149.916,33.199c-0.083,0.382-0.215,1.089-0.395,2.123c-0.583,0.132-1.041,0.215-1.374,0.25
				c-0.333,0.035-0.645,0.052-0.937,0.052c-0.513,0-0.973-0.049-1.379-0.146c-0.406-0.097-0.741-0.269-1.004-0.515
				c-0.264-0.246-0.442-0.534-0.536-0.864c-0.094-0.329-0.14-0.671-0.14-1.025c0-0.09,0.003-0.211,0.01-0.364
				c0.007-0.153,0.035-0.645,0.083-1.478l0.239-4.329h-1.498c0.034-0.416,0.066-1.086,0.093-2.009h1.568
				c0.041-0.402,0.083-1.086,0.124-2.05l1.23-0.239c0.257-0.049,0.754-0.163,1.491-0.344c-0.05,0.937-0.078,1.814-0.085,2.633h2.645
				c-0.049,0.937-0.073,1.606-0.073,2.009h-2.654c-0.146,2.824-0.219,4.458-0.219,4.901c0,0.43,0.047,0.763,0.14,0.999
				c0.094,0.236,0.245,0.406,0.453,0.51c0.208,0.104,0.43,0.156,0.666,0.156c0.173,0,0.355-0.014,0.546-0.042
				C149.103,33.4,149.437,33.324,149.916,33.199z"/>
		</g>
		<g>
			<path d="M55.933,46.694c-0.021-0.404-0.049-0.733-0.084-0.988c0.521,0.237,0.994,0.355,1.419,0.355
				c0.17,0,0.329-0.026,0.476-0.078s0.256-0.125,0.327-0.219c0.07-0.094,0.106-0.2,0.106-0.317c0-0.09-0.017-0.171-0.051-0.243
				c-0.051-0.098-0.136-0.201-0.254-0.307c-0.152-0.146-0.423-0.387-0.813-0.721c-0.186-0.162-0.314-0.278-0.385-0.347
				c-0.159-0.151-0.282-0.288-0.367-0.409c-0.085-0.121-0.146-0.241-0.183-0.361c-0.037-0.12-0.056-0.247-0.056-0.383
				c0-0.25,0.07-0.484,0.209-0.703s0.348-0.391,0.626-0.514c0.278-0.124,0.628-0.185,1.05-0.185c0.38,0,0.808,0.047,1.283,0.139
				c0.013,0.276,0.04,0.593,0.08,0.949c-0.414-0.159-0.796-0.239-1.146-0.239c-0.26,0-0.473,0.059-0.638,0.177
				c-0.166,0.118-0.249,0.256-0.249,0.412c0,0.043,0.006,0.087,0.017,0.134c0.012,0.047,0.029,0.092,0.052,0.136
				c0.023,0.044,0.064,0.101,0.124,0.171c0.059,0.07,0.146,0.153,0.26,0.247c0.114,0.094,0.212,0.171,0.292,0.229l0.492,0.446
				c0.125,0.104,0.236,0.205,0.334,0.303c0.098,0.098,0.182,0.193,0.253,0.283c0.07,0.09,0.125,0.177,0.165,0.259
				c0.04,0.082,0.069,0.167,0.089,0.253c0.02,0.086,0.03,0.177,0.03,0.273c0,0.223-0.052,0.434-0.155,0.632
				c-0.104,0.198-0.252,0.361-0.446,0.488c-0.194,0.128-0.407,0.216-0.638,0.265s-0.476,0.074-0.733,0.074
				c-0.17,0-0.368-0.015-0.594-0.044C56.599,46.832,56.302,46.776,55.933,46.694z"/>
			<path d="M71.155,46.809c0.032-0.295,0.064-0.68,0.097-1.156c0.033-0.476,0.052-0.854,0.057-1.136l-1.784-3.149
				c0.3,0.005,0.533,0.008,0.701,0.008c0.159,0,0.371-0.003,0.637-0.008c0.12,0.276,0.294,0.626,0.522,1.049
				c0.229,0.423,0.425,0.812,0.59,1.165l1.185-1.912c0.04-0.066,0.098-0.167,0.176-0.303c0.257,0.005,0.486,0.008,0.685,0.008
				c0.104,0,0.317-0.003,0.641-0.008l-2.176,3.232l-0.048,1.008c-0.016,0.298-0.028,0.697-0.036,1.2
				c-0.284-0.005-0.491-0.008-0.621-0.008C71.648,46.801,71.439,46.804,71.155,46.809z"/>
			<path d="M84.493,46.694c-0.021-0.404-0.049-0.733-0.084-0.988c0.521,0.237,0.994,0.355,1.419,0.355
				c0.17,0,0.329-0.026,0.476-0.078c0.147-0.052,0.256-0.125,0.327-0.219c0.07-0.094,0.106-0.2,0.106-0.317
				c0-0.09-0.017-0.171-0.051-0.243c-0.051-0.098-0.136-0.201-0.254-0.307c-0.152-0.146-0.423-0.387-0.813-0.721
				c-0.186-0.162-0.314-0.278-0.385-0.347c-0.159-0.151-0.282-0.288-0.367-0.409c-0.085-0.121-0.146-0.241-0.183-0.361
				c-0.037-0.12-0.056-0.247-0.056-0.383c0-0.25,0.07-0.484,0.209-0.703c0.139-0.219,0.348-0.391,0.626-0.514
				c0.278-0.124,0.628-0.185,1.05-0.185c0.38,0,0.808,0.047,1.283,0.139c0.013,0.276,0.04,0.593,0.08,0.949
				c-0.414-0.159-0.796-0.239-1.146-0.239c-0.26,0-0.473,0.059-0.638,0.177c-0.166,0.118-0.249,0.256-0.249,0.412
				c0,0.043,0.006,0.087,0.017,0.134c0.012,0.047,0.029,0.092,0.052,0.136c0.023,0.044,0.064,0.101,0.124,0.171
				c0.059,0.07,0.146,0.153,0.26,0.247c0.114,0.094,0.212,0.171,0.292,0.229l0.492,0.446c0.125,0.104,0.236,0.205,0.334,0.303
				c0.098,0.098,0.182,0.193,0.253,0.283c0.07,0.09,0.125,0.177,0.165,0.259c0.04,0.082,0.069,0.167,0.089,0.253
				c0.02,0.086,0.03,0.177,0.03,0.273c0,0.223-0.052,0.434-0.155,0.632c-0.104,0.198-0.252,0.361-0.446,0.488
				c-0.194,0.128-0.407,0.216-0.638,0.265s-0.476,0.074-0.733,0.074c-0.17,0-0.368-0.015-0.594-0.044
				C85.16,46.832,84.863,46.776,84.493,46.694z"/>
			<path d="M99.772,46.809l0.087-1.164l0.087-1.734l0.056-1.706h-0.279l-0.259,0.004l-0.247,0.004l-0.919,0.028
				c0.021-0.383,0.033-0.674,0.036-0.873c0.765,0.005,1.566,0.008,2.402,0.008l1.43-0.004l0.765-0.004
				c-0.027,0.378-0.04,0.669-0.04,0.873c-0.481-0.024-0.942-0.036-1.383-0.036h-0.307l-0.047,0.728l-0.115,2.801l-0.008,0.469
				c-0.002,0.194-0.004,0.395-0.004,0.605l-0.607-0.008C100.356,46.801,100.139,46.804,99.772,46.809z"/>
			<path d="M113.106,46.809l0.115-1.526l0.084-1.766l0.052-1.606v-0.542c0.656,0.005,1.34,0.008,2.053,0.008l0.765-0.004
				l1.152-0.004l-0.048,0.861l-0.379-0.02c-0.104-0.005-0.247-0.009-0.43-0.012c-0.183-0.003-0.371-0.004-0.562-0.004
				c-0.414,0-0.682,0.001-0.803,0.002c-0.121,0.001-0.304,0.006-0.548,0.014l-0.065,1.415c0.364,0.008,0.731,0.012,1.1,0.012
				c0.255,0,0.686-0.008,1.292-0.024c-0.021,0.242-0.04,0.531-0.056,0.869c-0.709-0.008-1.116-0.012-1.219-0.012
				c-0.314,0-0.704,0.008-1.171,0.024l-0.065,1.491l0.438,0.004c0.128,0,0.42-0.003,0.877-0.008l0.865-0.016l0.578-0.028
				c-0.027,0.308-0.045,0.599-0.056,0.873c-0.691-0.005-1.314-0.008-1.869-0.008l-1.311,0.004L113.106,46.809z"/>
			<path d="M127.791,46.809l0.104-0.901l0.264-3.164l0.092-1.375c0.379,0.005,0.657,0.008,0.832,0.008
				c0.141,0,0.397-0.003,0.768-0.008c0.043,0.215,0.074,0.368,0.096,0.458c0.021,0.09,0.063,0.235,0.124,0.434
				c0.061,0.199,0.14,0.441,0.236,0.725c0.141,0.43,0.268,0.856,0.379,1.275l0.304,1.14l0.533-1.463l0.776-1.901
				c0.027-0.064,0.054-0.138,0.081-0.221c0.028-0.084,0.075-0.233,0.141-0.448c0.316,0.005,0.598,0.008,0.845,0.008
				c0.165,0,0.428-0.003,0.79-0.008c-0.037,0.765-0.065,1.611-0.083,2.537c-0.019,0.926-0.028,1.617-0.028,2.074
				c0,0.221,0.003,0.497,0.008,0.829c-0.263-0.005-0.442-0.008-0.538-0.008c-0.138,0-0.322,0.003-0.55,0.008
				c0.016-0.271,0.026-0.494,0.032-0.67l0.067-2.371c0.008-0.335,0.012-0.664,0.012-0.988l-0.004-0.323l-1.465,3.878l-0.171,0.474
				c-0.259-0.005-0.436-0.008-0.532-0.008c-0.12,0-0.308,0.003-0.564,0.008l-0.686-2.455c-0.024-0.088-0.08-0.271-0.167-0.55
				l-0.247-0.813c-0.024-0.077-0.042-0.14-0.054-0.189c-0.012-0.049-0.038-0.159-0.078-0.329l-0.052,0.51
				c-0.013,0.162-0.033,0.433-0.06,0.813l-0.156,2.471c-0.005,0.122-0.009,0.303-0.012,0.542l-0.514-0.008
				C128.225,46.801,128.051,46.804,127.791,46.809z"/>
			<path d="M144.779,46.694c-0.021-0.404-0.049-0.733-0.084-0.988c0.521,0.237,0.994,0.355,1.419,0.355
				c0.17,0,0.329-0.026,0.476-0.078s0.256-0.125,0.327-0.219c0.07-0.094,0.106-0.2,0.106-0.317c0-0.09-0.017-0.171-0.051-0.243
				c-0.051-0.098-0.136-0.201-0.254-0.307c-0.152-0.146-0.423-0.387-0.813-0.721c-0.186-0.162-0.314-0.278-0.385-0.347
				c-0.159-0.151-0.282-0.288-0.367-0.409c-0.085-0.121-0.146-0.241-0.183-0.361c-0.037-0.12-0.056-0.247-0.056-0.383
				c0-0.25,0.07-0.484,0.209-0.703s0.348-0.391,0.626-0.514c0.277-0.124,0.628-0.185,1.05-0.185c0.38,0,0.808,0.047,1.283,0.139
				c0.013,0.276,0.04,0.593,0.08,0.949c-0.414-0.159-0.796-0.239-1.146-0.239c-0.26,0-0.473,0.059-0.638,0.177
				c-0.166,0.118-0.249,0.256-0.249,0.412c0,0.043,0.006,0.087,0.017,0.134c0.012,0.047,0.029,0.092,0.052,0.136
				c0.023,0.044,0.064,0.101,0.124,0.171c0.059,0.07,0.146,0.153,0.26,0.247c0.114,0.094,0.211,0.171,0.292,0.229l0.492,0.446
				c0.125,0.104,0.236,0.205,0.334,0.303c0.098,0.098,0.182,0.193,0.253,0.283c0.07,0.09,0.125,0.177,0.165,0.259
				c0.04,0.082,0.07,0.167,0.089,0.253c0.02,0.086,0.03,0.177,0.03,0.273c0,0.223-0.052,0.434-0.155,0.632
				c-0.104,0.198-0.253,0.361-0.446,0.488c-0.194,0.128-0.407,0.216-0.638,0.265s-0.476,0.074-0.733,0.074
				c-0.17,0-0.368-0.015-0.594-0.044C145.446,46.832,145.149,46.776,144.779,46.694z"/>
		</g>
	</g>
</g>
</svg>
